<mxfile host="app.diagrams.net" agent="Mozilla/5.0 (Windows NT 10.0; Win64; x64) AppleWebKit/537.36 (KHTML, like Gecko) Chrome/127.0.0.0 Safari/537.36" version="24.7.6">
  <diagram id="C5RBs43oDa-KdzZeNtuy" name="Page-1">
    <mxGraphModel dx="1002" dy="857" grid="1" gridSize="10" guides="1" tooltips="1" connect="1" arrows="1" fold="1" page="1" pageScale="1" pageWidth="827" pageHeight="1169" math="0" shadow="0">
      <root>
        <mxCell id="WIyWlLk6GJQsqaUBKTNV-0" />
        <mxCell id="WIyWlLk6GJQsqaUBKTNV-1" parent="WIyWlLk6GJQsqaUBKTNV-0" />
        <mxCell id="Gto0frWVA9N6NbOYkCBt-2" value="" style="edgeStyle=orthogonalEdgeStyle;rounded=0;orthogonalLoop=1;jettySize=auto;html=1;" edge="1" parent="WIyWlLk6GJQsqaUBKTNV-1" source="Gto0frWVA9N6NbOYkCBt-0" target="Gto0frWVA9N6NbOYkCBt-1">
          <mxGeometry relative="1" as="geometry" />
        </mxCell>
        <mxCell id="Gto0frWVA9N6NbOYkCBt-0" value="Song Request" style="rounded=0;whiteSpace=wrap;html=1;" vertex="1" parent="WIyWlLk6GJQsqaUBKTNV-1">
          <mxGeometry x="340" y="30" width="120" height="60" as="geometry" />
        </mxCell>
        <mxCell id="Gto0frWVA9N6NbOYkCBt-12" value="" style="edgeStyle=orthogonalEdgeStyle;rounded=0;orthogonalLoop=1;jettySize=auto;html=1;" edge="1" parent="WIyWlLk6GJQsqaUBKTNV-1" source="Gto0frWVA9N6NbOYkCBt-1" target="Gto0frWVA9N6NbOYkCBt-11">
          <mxGeometry relative="1" as="geometry" />
        </mxCell>
        <mxCell id="Gto0frWVA9N6NbOYkCBt-13" value="Yes" style="edgeLabel;html=1;align=center;verticalAlign=middle;resizable=0;points=[];" vertex="1" connectable="0" parent="Gto0frWVA9N6NbOYkCBt-12">
          <mxGeometry x="-0.1" y="1" relative="1" as="geometry">
            <mxPoint as="offset" />
          </mxGeometry>
        </mxCell>
        <mxCell id="Gto0frWVA9N6NbOYkCBt-15" value="" style="edgeStyle=orthogonalEdgeStyle;rounded=0;orthogonalLoop=1;jettySize=auto;html=1;" edge="1" parent="WIyWlLk6GJQsqaUBKTNV-1" source="Gto0frWVA9N6NbOYkCBt-1" target="Gto0frWVA9N6NbOYkCBt-14">
          <mxGeometry relative="1" as="geometry" />
        </mxCell>
        <mxCell id="Gto0frWVA9N6NbOYkCBt-16" value="No" style="edgeLabel;html=1;align=center;verticalAlign=middle;resizable=0;points=[];" vertex="1" connectable="0" parent="Gto0frWVA9N6NbOYkCBt-15">
          <mxGeometry x="-0.1" y="-3" relative="1" as="geometry">
            <mxPoint as="offset" />
          </mxGeometry>
        </mxCell>
        <mxCell id="Gto0frWVA9N6NbOYkCBt-1" value="Song Playing?" style="rounded=0;whiteSpace=wrap;html=1;" vertex="1" parent="WIyWlLk6GJQsqaUBKTNV-1">
          <mxGeometry x="340" y="170" width="120" height="60" as="geometry" />
        </mxCell>
        <mxCell id="Gto0frWVA9N6NbOYkCBt-11" value="Add to queue" style="rounded=0;whiteSpace=wrap;html=1;" vertex="1" parent="WIyWlLk6GJQsqaUBKTNV-1">
          <mxGeometry x="540" y="170" width="120" height="60" as="geometry" />
        </mxCell>
        <mxCell id="Gto0frWVA9N6NbOYkCBt-18" value="" style="edgeStyle=orthogonalEdgeStyle;rounded=0;orthogonalLoop=1;jettySize=auto;html=1;entryX=0.5;entryY=0;entryDx=0;entryDy=0;" edge="1" parent="WIyWlLk6GJQsqaUBKTNV-1" source="Gto0frWVA9N6NbOYkCBt-14" target="Gto0frWVA9N6NbOYkCBt-24">
          <mxGeometry relative="1" as="geometry">
            <mxPoint x="420" y="450" as="targetPoint" />
          </mxGeometry>
        </mxCell>
        <mxCell id="Gto0frWVA9N6NbOYkCBt-19" value="No" style="edgeLabel;html=1;align=center;verticalAlign=middle;resizable=0;points=[];" vertex="1" connectable="0" parent="Gto0frWVA9N6NbOYkCBt-18">
          <mxGeometry x="-0.15" y="1" relative="1" as="geometry">
            <mxPoint as="offset" />
          </mxGeometry>
        </mxCell>
        <mxCell id="Gto0frWVA9N6NbOYkCBt-21" value="" style="edgeStyle=orthogonalEdgeStyle;rounded=0;orthogonalLoop=1;jettySize=auto;html=1;" edge="1" parent="WIyWlLk6GJQsqaUBKTNV-1" source="Gto0frWVA9N6NbOYkCBt-14" target="Gto0frWVA9N6NbOYkCBt-20">
          <mxGeometry relative="1" as="geometry" />
        </mxCell>
        <mxCell id="Gto0frWVA9N6NbOYkCBt-22" value="Yes" style="edgeLabel;html=1;align=center;verticalAlign=middle;resizable=0;points=[];" vertex="1" connectable="0" parent="Gto0frWVA9N6NbOYkCBt-21">
          <mxGeometry relative="1" as="geometry">
            <mxPoint as="offset" />
          </mxGeometry>
        </mxCell>
        <mxCell id="Gto0frWVA9N6NbOYkCBt-14" value="Queue Empty?" style="rounded=0;whiteSpace=wrap;html=1;" vertex="1" parent="WIyWlLk6GJQsqaUBKTNV-1">
          <mxGeometry x="340" y="310" width="120" height="60" as="geometry" />
        </mxCell>
        <mxCell id="Gto0frWVA9N6NbOYkCBt-20" value="&lt;ol&gt;&lt;li&gt;Start Playback&lt;/li&gt;&lt;li&gt;Add to queue&lt;/li&gt;&lt;li&gt;self.queue_active = True&lt;/li&gt;&lt;/ol&gt;" style="rounded=0;whiteSpace=wrap;html=1;align=left;" vertex="1" parent="WIyWlLk6GJQsqaUBKTNV-1">
          <mxGeometry x="60" y="300" width="190" height="80" as="geometry" />
        </mxCell>
        <mxCell id="Gto0frWVA9N6NbOYkCBt-23" value="&lt;ol&gt;&lt;li&gt;Start playback&lt;/li&gt;&lt;li&gt;Add to queue&lt;/li&gt;&lt;li&gt;self.queue_active = True&lt;/li&gt;&lt;/ol&gt;" style="rounded=0;whiteSpace=wrap;html=1;align=left;" vertex="1" parent="WIyWlLk6GJQsqaUBKTNV-1">
          <mxGeometry x="60" y="300" width="190" height="80" as="geometry" />
        </mxCell>
        <mxCell id="Gto0frWVA9N6NbOYkCBt-24" value="&lt;ol&gt;&lt;li&gt;Start playback of first in queue&lt;/li&gt;&lt;/ol&gt;" style="rounded=0;whiteSpace=wrap;html=1;align=left;" vertex="1" parent="WIyWlLk6GJQsqaUBKTNV-1">
          <mxGeometry x="324.5" y="470" width="151" height="70" as="geometry" />
        </mxCell>
      </root>
    </mxGraphModel>
  </diagram>
</mxfile>
